<svg width="199" height="49" viewBox="0 0 199 49" fill="none" xmlns="http://www.w3.org/2000/svg">
<path d="M20.2188 21.5693H4.81348V34.167H22.709V38H0.125977V2.45312H22.4648V6.31055H4.81348V17.7363H20.2188V21.5693ZM37.2354 24.7432H25.3213V21.0566H37.2354V24.7432ZM47.0498 24.084V38H42.3623V2.45312H55.4727C59.3626 2.45312 62.4062 3.44596 64.6035 5.43164C66.8171 7.41732 67.9238 10.0459 67.9238 13.3174C67.9238 16.7679 66.8415 19.429 64.6768 21.3008C62.5283 23.1562 59.444 24.084 55.4238 24.084H47.0498ZM47.0498 20.251H55.4727C57.9792 20.251 59.8997 19.665 61.2344 18.4932C62.569 17.305 63.2363 15.596 63.2363 13.3662C63.2363 11.2503 62.569 9.55762 61.2344 8.28809C59.8997 7.01855 58.0687 6.35938 55.7412 6.31055H47.0498V20.251ZM78.1045 38H73.5879V0.5H78.1045V38ZM101.664 38C101.404 37.4792 101.192 36.5514 101.029 35.2168C98.9297 37.3978 96.4232 38.4883 93.5098 38.4883C90.9056 38.4883 88.7653 37.7559 87.0889 36.291C85.4287 34.8099 84.5986 32.9382 84.5986 30.6758C84.5986 27.9251 85.6403 25.793 87.7236 24.2793C89.8232 22.7493 92.7692 21.9844 96.5615 21.9844H100.956V19.9092C100.956 18.3304 100.484 17.0771 99.54 16.1494C98.596 15.2054 97.2044 14.7334 95.3652 14.7334C93.7539 14.7334 92.403 15.1403 91.3125 15.9541C90.222 16.7679 89.6768 17.7526 89.6768 18.9082H85.1357C85.1357 17.5898 85.5996 16.3203 86.5273 15.0996C87.4714 13.8626 88.7409 12.8861 90.3359 12.1699C91.9473 11.4538 93.7132 11.0957 95.6338 11.0957C98.6774 11.0957 101.062 11.8607 102.787 13.3906C104.512 14.9043 105.408 16.9958 105.473 19.665V31.8232C105.473 34.2484 105.782 36.1771 106.4 37.6094V38H101.664ZM94.1689 34.5576C95.585 34.5576 96.9277 34.1914 98.1973 33.459C99.4668 32.7266 100.386 31.7744 100.956 30.6025V25.1826H97.416C91.8822 25.1826 89.1152 26.8021 89.1152 30.041C89.1152 31.457 89.5872 32.5638 90.5312 33.3613C91.4753 34.1589 92.6878 34.5576 94.1689 34.5576ZM120.805 31.3838L126.957 11.584H131.791L121.171 42.0771C119.527 46.4717 116.915 48.6689 113.334 48.6689L112.479 48.5957L110.795 48.2783V44.6162L112.016 44.7139C113.546 44.7139 114.734 44.4046 115.58 43.7861C116.443 43.1676 117.151 42.0365 117.704 40.3926L118.705 37.707L109.281 11.584H114.213L120.805 31.3838ZM146.464 38.4883C142.883 38.4883 139.97 37.3164 137.724 34.9727C135.478 32.6126 134.354 29.4632 134.354 25.5244V24.6943C134.354 22.0739 134.851 19.7383 135.844 17.6875C136.853 15.6204 138.253 14.0091 140.043 12.8535C141.85 11.6816 143.803 11.0957 145.902 11.0957C149.337 11.0957 152.006 12.2269 153.91 14.4893C155.814 16.7516 156.767 19.9906 156.767 24.2061V26.0859H138.871C138.936 28.6901 139.693 30.7979 141.142 32.4092C142.606 34.0042 144.462 34.8018 146.708 34.8018C148.303 34.8018 149.654 34.4762 150.761 33.8252C151.868 33.1742 152.836 32.3115 153.666 31.2373L156.425 33.3857C154.211 36.7874 150.891 38.4883 146.464 38.4883ZM145.902 14.8066C144.079 14.8066 142.549 15.474 141.312 16.8086C140.076 18.127 139.311 19.9824 139.018 22.375H152.25V22.0332C152.12 19.7383 151.501 17.9642 150.395 16.7109C149.288 15.4414 147.79 14.8066 145.902 14.8066ZM174.784 15.6367C174.101 15.5228 173.36 15.4658 172.562 15.4658C169.6 15.4658 167.59 16.7272 166.532 19.25V38H162.016V11.584H166.41L166.483 14.6357C167.965 12.2757 170.064 11.0957 172.782 11.0957C173.661 11.0957 174.328 11.2096 174.784 11.4375V15.6367ZM194.34 30.9932C194.34 29.7725 193.876 28.8285 192.948 28.1611C192.037 27.4775 190.434 26.8916 188.139 26.4033C185.86 25.915 184.045 25.3291 182.694 24.6455C181.36 23.9619 180.367 23.1481 179.716 22.2041C179.081 21.2601 178.764 20.137 178.764 18.835C178.764 16.6702 179.675 14.8392 181.498 13.3418C183.337 11.8444 185.681 11.0957 188.529 11.0957C191.524 11.0957 193.949 11.8688 195.805 13.415C197.676 14.9613 198.612 16.9388 198.612 19.3477H194.071C194.071 18.1107 193.542 17.0446 192.484 16.1494C191.443 15.2542 190.124 14.8066 188.529 14.8066C186.885 14.8066 185.6 15.1647 184.672 15.8809C183.744 16.597 183.28 17.5329 183.28 18.6885C183.28 19.779 183.712 20.6009 184.574 21.1543C185.437 21.7077 186.991 22.2367 189.237 22.7412C191.5 23.2458 193.331 23.848 194.73 24.5479C196.13 25.2477 197.164 26.0941 197.831 27.0869C198.515 28.0635 198.856 29.2598 198.856 30.6758C198.856 33.0358 197.912 34.932 196.024 36.3643C194.136 37.7803 191.687 38.4883 188.676 38.4883C186.56 38.4883 184.688 38.1139 183.061 37.3652C181.433 36.6165 180.155 35.5749 179.228 34.2402C178.316 32.8893 177.86 31.4326 177.86 29.8701H182.377C182.458 31.3838 183.061 32.5882 184.184 33.4834C185.323 34.3623 186.82 34.8018 188.676 34.8018C190.385 34.8018 191.752 34.46 192.777 33.7764C193.819 33.0765 194.34 32.1488 194.34 30.9932Z" fill="white"/>
</svg>
